<svg id="Capa_1" data-name="Capa 1" xmlns="http://www.w3.org/2000/svg" width="248.9" height="147.85" viewBox="0 0 248.9 147.85">
  <defs>
    <style>
      .cls-1 {
        fill: #3eb0f9;
      }
    </style>
  </defs>
  <g>
    <g>
      <path class="cls-1" d="M2,67.5c15,0,17.2-6.79,17.2-17.24V30.47C19.2,11.8,30.64,2.94,46.51,2.94H50.2V14.38H47.74c-10.38,0-14.31,6.17-14.31,16.86V50.09c0,12.84-4.77,21.38-15.71,23.5C29,76,33.43,83.81,33.43,97.39v18.67c0,11.29,5.57,17.42,14.6,17.42H50.2v11.44H46.51c-13.86,0-27.31-7.29-27.31-27.48V97.22c0-9.83-1.78-17.1-17.2-17.17Z"/>
      <path class="cls-1" d="M246.9,80.36c-15,0-17.2,6.79-17.2,17.24v19.79c0,18.67-11.44,27.53-27.31,27.53H198.7V133.48h2.46c10.38,0,14.31-6.17,14.31-16.86V97.77c0-12.84,4.77-21.38,15.72-23.5-11.25-2.37-15.72-10.22-15.72-23.8V31.79c0-11.28-5.57-17.41-14.6-17.41H198.7V2.94h3.69c13.86,0,27.31,7.29,27.31,27.48V50.64c0,9.82,1.79,17.1,17.2,17.17Z"/>
    </g>
    <path class="cls-1" d="M80.31,33.12V45.24q7.84-13,25-13a32.09,32.09,0,0,1,16.34,4.15A28.42,28.42,0,0,1,132.8,48.21,35.26,35.26,0,0,1,144.71,36.6,31.25,31.25,0,0,1,161,32.23q15.09,0,24,9.32t8.87,25.87v48.21H168.73V70.82q0-8-4.21-12.34t-11.61-4.37q-7.4,0-11.61,4.37t-4.21,12.34v44.81H112V70.82q0-8-4.21-12.34t-11.6-4.37c-4.94,0-8.8,1.46-11.61,4.37s-4.22,7-4.22,12.34v44.81H55V33.12Z"/>
  </g>
</svg>
