<svg id="Capa_1" data-name="Capa 1" xmlns="http://www.w3.org/2000/svg" width="358.08"
  height="147.85" viewBox="0 0 358.08 147.85">
  <defs>
    <style>
      .cls-1 {
      fill: #f1f2f4;
      }
    </style>
  </defs>
  <g>
    <g>
      <path class="cls-1"
        d="M4,67.5c15,0,17.2-6.79,17.2-17.24V30.47C21.2,11.8,32.64,2.94,48.51,2.94H52.2V14.38H49.74c-10.38,0-14.31,6.17-14.31,16.86V50.09c0,12.84-4.77,21.38-15.71,23.5C31,76,35.43,83.81,35.43,97.39v18.67c0,11.29,5.57,17.42,14.6,17.42H52.2v11.44H48.51c-13.86,0-27.31-7.29-27.31-27.48V97.22c0-9.83-1.78-17.1-17.2-17.17Z" />
      <path class="cls-1"
        d="M248.9,80.36c-15,0-17.2,6.79-17.2,17.24v19.79c0,18.67-11.44,27.53-27.31,27.53H200.7V133.48h2.46c10.38,0,14.31-6.17,14.31-16.86V97.77c0-12.84,4.77-21.38,15.72-23.5-11.25-2.37-15.72-10.22-15.72-23.8V31.79c0-11.28-5.57-17.41-14.6-17.41H200.7V2.94h3.69c13.86,0,27.31,7.29,27.31,27.48V50.64c0,9.82,1.79,17.1,17.2,17.17Z" />
    </g>
    <path class="cls-1"
      d="M82.31,33.12V45.24q7.84-13,25-13a32.09,32.09,0,0,1,16.34,4.15A28.42,28.42,0,0,1,134.8,48.21,35.26,35.26,0,0,1,146.71,36.6,31.25,31.25,0,0,1,163,32.23q15.09,0,24,9.32t8.87,25.87v48.21H170.73V70.82q0-8-4.21-12.34t-11.61-4.37q-7.4,0-11.61,4.37t-4.21,12.34v44.81H114V70.82q0-8-4.21-12.34t-11.6-4.37c-4.94,0-8.8,1.46-11.61,4.37s-4.22,7-4.22,12.34v44.81H57V33.12Z" />
    <path class="cls-1"
      d="M322.11,34.71q-5.46-5.1-5.46-13.43t5.43-13.34a20.47,20.47,0,0,1,26.83,0q5.4,5,5.39,13.34t-5.36,13.43a18.62,18.62,0,0,1-13.36,5.1A19,19,0,0,1,322.11,34.71Zm18.76-6.65c1.46-1.55,2.2-3.79,2.2-6.72s-.76-5.16-2.26-6.68a7.29,7.29,0,0,0-5.36-2.3,7.16,7.16,0,0,0-5.33,2.3q-2.24,2.28-2.23,6.68t2.29,6.72a7.34,7.34,0,0,0,5.4,2.32A7,7,0,0,0,340.87,28.06Z" />
    <path class="cls-1"
      d="M260.61,8q3.67-5.11,10.56-5.11a15.24,15.24,0,0,1,11.65,5.2q4.79,5.2,4.78,13.27t-4.78,13.24a15.15,15.15,0,0,1-11.56,5.17,12.23,12.23,0,0,1-10.65-5.68V50.62H249.56V3.32h11.05ZM274,28a8.67,8.67,0,0,0,2.39-6.56A8.77,8.77,0,0,0,274,14.82a7.68,7.68,0,0,0-11,0,8.65,8.65,0,0,0-2.39,6.56A8.75,8.75,0,0,0,263,27.93a7.63,7.63,0,0,0,5.49,2.32A7.72,7.72,0,0,0,274,28Z" />
    <path class="cls-1"
      d="M314.6,12.36H302.66l-.05,27H291.49s0-16.79,0-24.81a17.44,17.44,0,0,1,.5-4.07c1-4,4.09-6.63,8.45-7.2a31,31,0,0,1,3.61-.24c3.43,0,6.85,0,10.28,0h.2C314.63,6.41,314.58,8.91,314.6,12.36Z" />
  </g>
</svg>