<svg id="Capa_1" data-name="Capa 1" xmlns="http://www.w3.org/2000/svg" width="916.71" height="147.85" viewBox="0 0 916.71 147.85">
  <defs>
    <style>
      .cls-1 {
        fill: #3eb0f9;
      }
    </style>
  </defs>
  <g>
    <path class="cls-1" d="M32.17,39.73V54.37q9.46-15.7,30.18-15.71a38.75,38.75,0,0,1,19.72,5A34.34,34.34,0,0,1,95.55,58a42.65,42.65,0,0,1,14.38-14,37.79,37.79,0,0,1,19.73-5.27q18.19,0,28.92,11.25t10.71,31.24v58.21H138.94V85.26q0-9.63-5.09-14.91t-14-5.26q-8.94,0-14,5.26t-5.09,14.91v54.1H70.38V85.26q0-9.63-5.09-14.91t-14-5.26q-8.94,0-14,5.26T32.17,85.26v54.1H1.64V39.73Z"/>
    <path class="cls-1" d="M195.09,126.51Q180,112.41,180,89.37T195,52.5q15-13.83,37.14-13.84T269.19,52.5q14.9,13.85,14.9,36.87t-14.82,37.14q-14.82,14.1-36.95,14.1T195.09,126.51ZM247,108.12Q253,101.69,253,89.55t-6.25-18.48A20.15,20.15,0,0,0,232,64.73a19.86,19.86,0,0,0-14.73,6.34q-6.16,6.34-6.16,18.48t6.34,18.57a20.26,20.26,0,0,0,14.91,6.42A19.43,19.43,0,0,0,247,108.12Z"/>
    <path class="cls-1" d="M363.37,39.73H393.9v99.63H363.37V124.72q-9.47,15.72-30.18,15.71-17.13,0-27.76-11.43T294.81,97.94V39.73h30.35v54.1q0,9.65,5.09,14.91t14,5.27q8.92,0,14-5.27t5.09-14.91Z"/>
    <path class="cls-1" d="M528.07,140.61q-21.78,0-35.7-14T478.44,89.37q0-23.2,13.84-37t35.79-13.75q22,0,36.43,13.57T579,89.9a62,62,0,0,1-.71,9.65H509.69a17.38,17.38,0,0,0,16.69,15c3.87,0,6.75-.38,8.66-1.16a15.16,15.16,0,0,0,4.19-2.32,29.82,29.82,0,0,0,3.49-3.84h33a43.8,43.8,0,0,1-17.14,24.2Q545.75,140.6,528.07,140.61Zm13-71.51a19.46,19.46,0,0,0-12.68-4.37,18.07,18.07,0,0,0-12.32,4.37,19.12,19.12,0,0,0-6.25,11.34h37.32A16.26,16.26,0,0,0,541.11,69.1Z"/>
    <path class="cls-1" d="M601.91,126.33q-13.21-14.28-13.21-36.6T601.91,53q13.2-14.37,32.23-14.38t29.19,14.11V7.24h30.53V139.36H663.33V124.9q-11.07,15.71-29.64,15.71T601.91,126.33Zm54.81-18.57q6.6-6.44,6.61-18.21t-6.61-18.13a21.24,21.24,0,0,0-30.35.1q-6.61,6.42-6.61,18.21t6.61,18.12a21.23,21.23,0,0,0,30.35-.09Z"/>
    <path class="cls-1" d="M754.92,140.61q-21.78,0-35.71-14T705.28,89.37q0-23.2,13.84-37t35.8-13.75q22,0,36.42,13.57T805.8,89.9a62,62,0,0,1-.71,9.65H736.53a17.38,17.38,0,0,0,16.69,15c3.87,0,6.76-.38,8.66-1.16a15.4,15.4,0,0,0,4.2-2.32,30.66,30.66,0,0,0,3.48-3.84h33a43.8,43.8,0,0,1-17.14,24.2Q772.6,140.6,754.92,140.61ZM768,69.1a19.43,19.43,0,0,0-12.67-4.37A18,18,0,0,0,743,69.1a19,19,0,0,0-6.25,11.34H774A16.22,16.22,0,0,0,768,69.1Z"/>
    <path class="cls-1" d="M804.73,39.73h32.49l22.68,74.1,22.67-74.1h32.5l-35.35,99.63H840.08Z"/>
    <path class="cls-1" d="M473.06,64.73h-33l-.14,74.7H409.18s-.05-46.43.08-68.61a48.37,48.37,0,0,1,1.38-11.24c2.77-11.16,11.3-18.34,23.35-19.9A83.38,83.38,0,0,1,444,39c9.47-.09,18.95,0,28.42,0H473C473.15,48.26,473,55.19,473.06,64.73Z"/>
  </g>
</svg>
