<svg xmlns="http://www.w3.org/2000/svg" xmlns:xlink="http://www.w3.org/1999/xlink" id="Capa_1"
	x="0px" y="0px" viewBox="0 0 200 37" style="enable-background:new 0 0 200 37;"
	xml:space="preserve">
<style type="text/css">
	.logo-raiola-0{fill-rule:evenodd;clip-rule:evenodd;fill:#f7f7f7;}
	.logo-raiola-1{fill:#f7f7f7;}
</style>
<g id="XMLID_1_">
	<g id="XMLID_86_">
		<polygon id="XMLID_154_" class="logo-raiola-0" points="27.5,11.7 17.5,6.2 7.6,11.7 17.5,17   "></polygon>
		<polygon id="XMLID_98_" class="logo-raiola-0" points="2.6,24.6 6.1,26.2 6.1,12.6 2.6,14.6   "></polygon>
		<polygon id="XMLID_97_" class="logo-raiola-0" points="7.6,16.6 7.6,13.4 17.4,18.6 17.4,21.8   "></polygon>
		<polygon id="XMLID_96_" class="logo-raiola-0" points="2.6,9 16.8,1 16.8,4.9 2.6,13   "></polygon>
		<polygon id="XMLID_95_" class="logo-raiola-0" points="32.6,8.9 18.3,1 18.3,5 32.6,12.8   "></polygon>
		<polygon id="XMLID_94_" class="logo-raiola-0" points="7.6,20.8 7.6,17.6 17.4,22.8 17.4,26   "></polygon>
		<polygon id="XMLID_93_" class="logo-raiola-0" points="27.5,20.7 27.5,17.5 17.7,22.8 17.7,26   "></polygon>
		<polygon id="XMLID_92_" class="logo-raiola-0" points="29,24.1 32.6,22.2 32.6,12.6 29,10.7   "></polygon>
		<polygon id="XMLID_91_" class="logo-raiola-0" points="2.6,28.1 16.8,35.7 16.8,31.8 2.6,24.2   "></polygon>
		<polygon id="XMLID_90_" class="logo-raiola-0" points="32.6,27.9 18.3,35.6 18.3,31.7 32.6,24   "></polygon>
		<polygon id="XMLID_89_" class="logo-raiola-0" points="27.5,16.5 27.5,13.3 17.7,18.6 17.7,21.8   "></polygon>
		<polygon id="XMLID_88_" class="logo-raiola-0" points="7.6,25 7.6,21.7 17.4,27 17.4,30.2   "></polygon>
		<polygon id="XMLID_87_" class="logo-raiola-0" points="27.5,24.9 27.5,21.7 17.7,27 17.7,30.2   "></polygon>
	</g>
	<g id="XMLID_45_">
		<g id="XMLID_65_">
			<g id="XMLID_66_">
				<path id="XMLID_84_" class="logo-raiola-1" d="M118.7,9v18.6h-4.2l-2.5-8.5v8.5h-4.1V9h4.1l2.7,8.4V9H118.7z"></path>
				<path id="XMLID_81_" class="logo-raiola-1" d="M131,20.3h-6v3.3c0,0.7,0.1,1.1,0.1,1.3c0.1,0.2,0.3,0.3,0.6,0.3c0.4,0,0.6-0.1,0.7-0.4      c0.1-0.3,0.2-0.8,0.2-1.5v-2h4.4v1.1c0,0.9-0.1,1.7-0.2,2.2c-0.1,0.5-0.4,1-0.8,1.6c-0.4,0.6-1,1-1.7,1.3      c-0.7,0.3-1.5,0.4-2.5,0.4c-1,0-1.8-0.1-2.6-0.4c-0.8-0.3-1.3-0.7-1.8-1.2c-0.4-0.5-0.7-1-0.9-1.6s-0.2-1.5-0.2-2.6v-4.5      c0-1.3,0.2-2.4,0.5-3.2c0.4-0.8,1-1.4,1.8-1.8c0.8-0.4,1.8-0.6,2.8-0.6c1.3,0,2.4,0.2,3.2,0.7c0.8,0.5,1.4,1.2,1.8,2      c0.3,0.8,0.5,2,0.5,3.4V20.3z M126.4,17.8v-1.1c0-0.8,0-1.3-0.1-1.5c-0.1-0.2-0.3-0.3-0.5-0.3c-0.3,0-0.5,0.1-0.6,0.3      c-0.1,0.2-0.1,0.7-0.1,1.6v1.1H126.4z"></path>
				<path id="XMLID_79_" class="logo-raiola-1" d="M137.5,10.3v2.4h1.3v2.4h-1.3v8.2c0,1,0.1,1.6,0.2,1.7c0.1,0.1,0.5,0.2,1.3,0.2v2.5H137      c-1.1,0-1.8,0-2.3-0.1s-0.9-0.3-1.2-0.6c-0.3-0.3-0.6-0.7-0.6-1.1c-0.1-0.4-0.1-1.4-0.1-2.9v-7.8h-1v-2.4h1v-2.4H137.5z"></path>
				<path id="XMLID_76_" class="logo-raiola-1" d="M154.8,12.4l-1.9,15.3h-5c-0.3-1.9-0.6-4.3-1-7.4c-0.1,1.3-0.3,2.7-0.5,4.1l-0.5,3.3h-5.1      l-2-15.3h4c0,0.4,0.4,3.3,1,8.7c0.1-0.6,0.4-3.5,1-8.7h3.9l0.9,8.7c0.1-2.6,0.5-5.5,1.1-8.7H154.8z"></path>
				<path id="XMLID_73_" class="logo-raiola-1" d="M166,17.7v3.7c0,1.4-0.1,2.4-0.2,3c-0.1,0.6-0.4,1.2-0.9,1.8c-0.5,0.6-1,1-1.7,1.2      c-0.7,0.3-1.5,0.4-2.4,0.4c-1,0-1.9-0.1-2.6-0.3c-0.7-0.2-1.3-0.6-1.7-1c-0.4-0.5-0.7-1-0.8-1.7c-0.2-0.6-0.3-1.6-0.3-2.9v-3.9      c0-1.4,0.2-2.5,0.5-3.3s0.9-1.4,1.7-1.9c0.8-0.5,1.8-0.7,3.1-0.7c1,0,1.9,0.2,2.7,0.5c0.7,0.3,1.3,0.7,1.7,1.2      c0.4,0.5,0.7,1,0.8,1.5C166,15.9,166,16.7,166,17.7z M161.4,16.6c0-0.8,0-1.3-0.1-1.5c-0.1-0.2-0.3-0.3-0.5-0.3      c-0.3,0-0.5,0.1-0.6,0.3c-0.1,0.2-0.1,0.7-0.1,1.5v6.9c0,0.7,0,1.2,0.1,1.4c0.1,0.2,0.3,0.3,0.5,0.3c0.3,0,0.5-0.1,0.5-0.3      c0.1-0.2,0.1-0.6,0.1-1.3V16.6z"></path>
				<path id="XMLID_71_" class="logo-raiola-1" d="M172.2,12.4l-0.2,2c0.7-1.4,1.7-2.2,2.9-2.3v5.4c-0.9,0-1.5,0.1-1.9,0.3      c-0.4,0.2-0.6,0.6-0.7,1c-0.1,0.4-0.1,1.4-0.1,2.8v6h-4.7V12.4H172.2z"></path>
				<path id="XMLID_69_" class="logo-raiola-1" d="M186,12.4l-1.9,6.1l2.5,9.2h-4.5l-1.5-6.7l0,6.7H176V9h4.7l0,7.8l1.5-4.5H186z"></path>
				<path id="XMLID_67_" class="logo-raiola-1" d="M196.8,17.3h-4.1v-0.8c0-0.7,0-1.2-0.1-1.3c-0.1-0.2-0.3-0.3-0.6-0.3      c-0.3,0-0.5,0.1-0.6,0.3c-0.1,0.2-0.2,0.4-0.2,0.8c0,0.5,0,0.8,0.1,1c0.1,0.2,0.3,0.5,0.6,0.7c0.3,0.3,1,0.6,2,1.1      c1.4,0.7,2.2,1.3,2.7,1.9c0.4,0.6,0.6,1.4,0.6,2.5c0,1.2-0.2,2.2-0.5,2.8c-0.3,0.6-0.9,1.1-1.6,1.5s-1.7,0.5-2.7,0.5      c-1.2,0-2.2-0.2-3-0.6s-1.4-0.9-1.7-1.5c-0.3-0.6-0.5-1.6-0.5-2.9v-0.7h4.1v1c0,0.8,0.1,1.4,0.2,1.6c0.1,0.2,0.3,0.4,0.6,0.4      c0.3,0,0.6-0.1,0.7-0.2c0.1-0.2,0.2-0.5,0.2-1c0-0.7-0.1-1.2-0.3-1.4c-0.2-0.2-1.1-0.7-2.7-1.6c-1.4-0.8-2.2-1.5-2.5-2.1      c-0.3-0.6-0.4-1.4-0.4-2.2c0-1.2,0.2-2.1,0.5-2.7c0.3-0.6,0.9-1,1.6-1.3c0.8-0.3,1.7-0.5,2.7-0.5c1,0,1.9,0.1,2.6,0.4      c0.7,0.3,1.3,0.6,1.6,1c0.4,0.4,0.6,0.8,0.7,1.2c0.1,0.4,0.1,0.9,0.1,1.7V17.3z"></path>
			</g>
		</g>
		<g id="XMLID_46_">
			<g id="XMLID_47_">
				<path id="XMLID_62_" class="logo-raiola-1" d="M40.1,9.2h3.4c2.3,0,3.8,0.1,4.6,0.3c0.8,0.2,1.5,0.6,2,1.4c0.5,0.7,0.8,1.9,0.8,3.5      c0,1.5-0.2,2.4-0.5,2.9s-1.1,0.8-2.1,0.9c1,0.2,1.6,0.6,1.9,1c0.3,0.4,0.5,0.8,0.6,1.1c0.1,0.3,0.1,1.3,0.1,2.8v4.9h-4.5v-6.2      c0-1-0.1-1.6-0.2-1.9c-0.2-0.2-0.6-0.4-1.2-0.4v8.4h-4.8V9.2z M44.9,12.4v4.1c0.5,0,0.9-0.1,1.1-0.2c0.2-0.1,0.3-0.6,0.3-1.5v-1      c0-0.6-0.1-1-0.3-1.2C45.9,12.4,45.5,12.4,44.9,12.4z"></path>
				<path id="XMLID_59_" class="logo-raiola-1" d="M56.8,18.4h-4.4v-1c0-1.2,0.1-2.1,0.4-2.7c0.3-0.6,0.8-1.2,1.6-1.7c0.8-0.5,1.9-0.7,3.2-0.7      c1.6,0,2.8,0.3,3.6,0.8c0.8,0.6,1.3,1.2,1.4,2c0.2,0.8,0.2,2.5,0.2,5v7.7h-4.5v-1.4c-0.3,0.5-0.7,1-1.1,1.2      c-0.4,0.3-1,0.4-1.6,0.4c-0.8,0-1.6-0.2-2.2-0.7c-0.7-0.5-1-1.5-1-3v-1.3c0-1.1,0.2-1.9,0.5-2.3c0.4-0.4,1.3-0.9,2.7-1.5      c1.5-0.6,2.3-1,2.5-1.2c0.1-0.2,0.2-0.6,0.2-1.3c0-0.8-0.1-1.3-0.2-1.6C58,15.1,57.8,15,57.5,15c-0.3,0-0.5,0.1-0.6,0.3      c-0.1,0.2-0.1,0.7-0.1,1.6V18.4z M58.3,20.5c-0.7,0.5-1.2,1-1.3,1.4c-0.1,0.4-0.2,0.9-0.2,1.6c0,0.8,0.1,1.3,0.2,1.5      c0.1,0.2,0.3,0.3,0.6,0.3c0.3,0,0.5-0.1,0.6-0.3c0.1-0.2,0.1-0.7,0.1-1.4V20.5z"></path>
				<path id="XMLID_56_" class="logo-raiola-1" d="M69.3,9.2v2.4h-4.8V9.2H69.3z M69.3,12.5v15.3h-4.8V12.5H69.3z"></path>
				<path id="XMLID_53_" class="logo-raiola-1" d="M81.5,17.9v3.7c0,1.4-0.1,2.4-0.2,3c-0.1,0.6-0.4,1.2-0.9,1.8c-0.5,0.6-1,1-1.7,1.2      c-0.7,0.3-1.5,0.4-2.4,0.4c-1,0-1.9-0.1-2.6-0.3c-0.7-0.2-1.3-0.6-1.7-1c-0.4-0.5-0.7-1-0.8-1.7c-0.2-0.6-0.3-1.6-0.3-2.9v-3.9      c0-1.4,0.2-2.5,0.5-3.3c0.3-0.8,0.9-1.4,1.7-1.9c0.8-0.5,1.8-0.7,3.1-0.7c1,0,1.9,0.2,2.7,0.5c0.7,0.3,1.3,0.7,1.7,1.2      c0.4,0.5,0.7,1,0.8,1.5C81.4,16,81.5,16.8,81.5,17.9z M76.8,16.7c0-0.8,0-1.3-0.1-1.5c-0.1-0.2-0.3-0.3-0.5-0.3      c-0.3,0-0.5,0.1-0.6,0.3c-0.1,0.2-0.1,0.7-0.1,1.5v6.9c0,0.7,0,1.2,0.1,1.4c0.1,0.2,0.3,0.3,0.5,0.3c0.3,0,0.5-0.1,0.5-0.3      c0.1-0.2,0.1-0.6,0.1-1.3V16.7z"></path>
				<path id="XMLID_51_" class="logo-raiola-1" d="M87.8,9.2v18.6H83V9.2H87.8z"></path>
				<path id="XMLID_48_" class="logo-raiola-1" d="M93.6,18.4h-4.4v-1c0-1.2,0.1-2.1,0.4-2.7c0.3-0.6,0.8-1.2,1.6-1.7c0.8-0.5,1.9-0.7,3.2-0.7      c1.6,0,2.8,0.3,3.6,0.8c0.8,0.6,1.3,1.2,1.4,2c0.2,0.8,0.2,2.5,0.2,5v7.7h-4.5v-1.4c-0.3,0.5-0.7,1-1.1,1.2      c-0.4,0.3-1,0.4-1.6,0.4c-0.8,0-1.6-0.2-2.2-0.7c-0.7-0.5-1-1.5-1-3v-1.3c0-1.1,0.2-1.9,0.5-2.3c0.4-0.4,1.3-0.9,2.7-1.5      c1.5-0.6,2.3-1,2.5-1.2c0.1-0.2,0.2-0.6,0.2-1.3c0-0.8-0.1-1.3-0.2-1.6c-0.1-0.2-0.3-0.4-0.6-0.4c-0.3,0-0.5,0.1-0.6,0.3      c-0.1,0.2-0.1,0.7-0.1,1.6V18.4z M95.1,20.5c-0.7,0.5-1.2,1-1.3,1.4c-0.1,0.4-0.2,0.9-0.2,1.6c0,0.8,0.1,1.3,0.2,1.5      c0.1,0.2,0.3,0.3,0.6,0.3c0.3,0,0.5-0.1,0.6-0.3c0.1-0.2,0.1-0.7,0.1-1.4V20.5z"></path>
			</g>
		</g>
	</g>
</g>
</svg>